<?xml version="1.0" encoding="UTF-8"?>
<svg width="58px" height="58px" viewBox="0 0 58 58" version="1.1" xmlns="http://www.w3.org/2000/svg" xmlns:xlink="http://www.w3.org/1999/xlink">
    <!-- Generator: Sketch 42 (36781) - http://www.bohemiancoding.com/sketch -->
    <title>Group 2</title>
    <desc>Created with Sketch.</desc>
    <defs></defs>
    <g id="Symbols" stroke="none" stroke-width="1" fill="none" fill-rule="evenodd">
        <g id="Show-Microphone" transform="translate(-1.000000, -1.000000)">
            <g id="Group-2" transform="translate(2.000000, 1.000000)">
                <path d="M7,7 C7,7.552 6.552,8 6,8 C5.448,8 5,7.552 5,7 C5,6.448 5.448,6 6,6 C6.552,6 7,6.448 7,7" id="Fill-54" fill="#FFFFFF"></path>
                <path d="M10,4 C10,4.552 9.552,5 9,5 C8.448,5 8,4.552 8,4 C8,3.448 8.448,3 9,3 C9.552,3 10,3.448 10,4" id="Fill-55" fill="#FFFFFF"></path>
                <path d="M4,10 C4,10.552 3.552,11 3,11 C2.448,11 2,10.552 2,10 C2,9.448 2.448,9 3,9 C3.552,9 4,9.448 4,10" id="Fill-56" fill="#FFFFFF"></path>
                <path d="M11,8 C11,8.552 10.552,9 10,9 C9.448,9 9,8.552 9,8 C9,7.448 9.448,7 10,7 C10.552,7 11,7.448 11,8" id="Fill-57" fill="#FFFFFF"></path>
                <path d="M14,5 C14,5.552 13.552,6 13,6 C12.448,6 12,5.552 12,5 C12,4.448 12.448,4 13,4 C13.552,4 14,4.448 14,5" id="Fill-58" fill="#FFFFFF"></path>
                <path d="M17,2 C17,2.552 16.552,3 16,3 C15.448,3 15,2.552 15,2 C15,1.448 15.448,1 16,1 C16.552,1 17,1.448 17,2" id="Fill-59" fill="#FFFFFF"></path>
                <path d="M17,8 C17,8.552 16.552,9 16,9 C15.448,9 15,8.552 15,8 C15,7.448 15.448,7 16,7 C16.552,7 17,7.448 17,8" id="Fill-60" fill="#FFFFFF"></path>
                <path d="M20,5 C20,5.552 19.552,6 19,6 C18.448,6 18,5.552 18,5 C18,4.448 18.448,4 19,4 C19.552,4 20,4.448 20,5" id="Fill-61" fill="#FFFFFF"></path>
                <path d="M23,8 C23,8.552 22.552,9 22,9 C21.448,9 21,8.552 21,8 C21,7.448 21.448,7 22,7 C22.552,7 23,7.448 23,8" id="Fill-62" fill="#FFFFFF"></path>
                <path d="M8,11 C8,11.552 7.552,12 7,12 C6.448,12 6,11.552 6,11 C6,10.448 6.448,10 7,10 C7.552,10 8,10.448 8,11" id="Fill-63" fill="#FFFFFF"></path>
                <path d="M14,11 C14,11.552 13.552,12 13,12 C12.448,12 12,11.552 12,11 C12,10.448 12.448,10 13,10 C13.552,10 14,10.448 14,11" id="Fill-64" fill="#FFFFFF"></path>
                <path d="M20,11 C20,11.552 19.552,12 19,12 C18.448,12 18,11.552 18,11 C18,10.448 18.448,10 19,10 C19.552,10 20,10.448 20,11" id="Fill-65" fill="#FFFFFF"></path>
                <path d="M5,14 C5,14.552 4.552,15 4,15 C3.448,15 3,14.552 3,14 C3,13.448 3.448,13 4,13 C4.552,13 5,13.448 5,14" id="Fill-66" fill="#FFFFFF"></path>
                <path d="M5,20 C5,20.552 4.552,21 4,21 C3.448,21 3,20.552 3,20 C3,19.448 3.448,19 4,19 C4.552,19 5,19.448 5,20" id="Fill-67" fill="#FFFFFF"></path>
                <path d="M8,17 C8,17.552 7.552,18 7,18 C6.448,18 6,17.552 6,17 C6,16.448 6.448,16 7,16 C7.552,16 8,16.448 8,17" id="Fill-68" fill="#FFFFFF"></path>
                <path d="M11,14 C11,14.552 10.552,15 10,15 C9.448,15 9,14.552 9,14 C9,13.448 9.448,13 10,13 C10.552,13 11,13.448 11,14" id="Fill-69" fill="#FFFFFF"></path>
                <path d="M11,20 C11,20.552 10.552,21 10,21 C9.448,21 9,20.552 9,20 C9,19.448 9.448,19 10,19 C10.552,19 11,19.448 11,20" id="Fill-70" fill="#FFFFFF"></path>
                <path d="M14,17 C14,17.552 13.552,18 13,18 C12.448,18 12,17.552 12,17 C12,16.448 12.448,16 13,16 C13.552,16 14,16.448 14,17" id="Fill-71" fill="#FFFFFF"></path>
                <path d="M17,14 C17,14.552 16.552,15 16,15 C15.448,15 15,14.552 15,14 C15,13.448 15.448,13 16,13 C16.552,13 17,13.448 17,14" id="Fill-72" fill="#FFFFFF"></path>
                <path d="M17,20 C17,20.552 16.552,21 16,21 C15.448,21 15,20.552 15,20 C15,19.448 15.448,19 16,19 C16.552,19 17,19.448 17,20" id="Fill-73" fill="#FFFFFF"></path>
                <path d="M20,17 C20,17.552 19.552,18 19,18 C18.448,18 18,17.552 18,17 C18,16.448 18.448,16 19,16 C19.552,16 20,16.448 20,17" id="Fill-74" fill="#FFFFFF"></path>
                <path d="M23,14 C23,14.552 22.552,15 22,15 C21.448,15 21,14.552 21,14 C21,13.448 21.448,13 22,13 C22.552,13 23,13.448 23,14" id="Fill-75" fill="#FFFFFF"></path>
                <path d="M8,23 C8,23.552 7.552,24 7,24 C6.448,24 6,23.552 6,23 C6,22.448 6.448,22 7,22 C7.552,22 8,22.448 8,23" id="Fill-76" fill="#FFFFFF"></path>
                <path d="M14,23 C14,23.552 13.552,24 13,24 C12.448,24 12,23.552 12,23 C12,22.448 12.448,22 13,22 C13.552,22 14,22.448 14,23" id="Fill-77" fill="#FFFFFF"></path>
                <polygon id="Path" stroke="#FFFFFF" stroke-width="2" stroke-linecap="round" stroke-linejoin="round" points="28 32 27 31 27 29 28 28 30 28 31 29 31 31 30 32"></polygon>
                <polygon id="Path" stroke="#FFFFFF" stroke-width="2" stroke-linecap="round" stroke-linejoin="round" points="35 39 34 38 34 36 35 35 37 35 38 36 38 38 37 39"></polygon>
                <polygon id="Path" stroke="#FFFFFF" stroke-width="2" stroke-linecap="round" stroke-linejoin="round" points="34 53 33 52 33 50 34 49 36 49 37 50 37 52 36 53"></polygon>
                <path d="M43.345,50.709 L49.709,44.345 L43.345,50.709 Z M46.174,53.537 L52.537,47.174 L46.174,53.537 Z M55.014,49.214 L28.015,19.551 C27.35,21.71 26.169,23.745 24.46,25.454 C22.493,27.421 20.094,28.681 17.571,29.265 L48.214,56.014 C49.857,57.411 52.298,57.313 53.823,55.787 L54.787,54.823 C56.312,53.298 56.411,50.857 55.014,49.214 L55.014,49.214 Z M25.378,6.207 C25.09,5.858 24.787,5.517 24.46,5.191 C18.865,-0.405 9.792,-0.405 4.197,5.191 C-1.399,10.786 -1.399,19.859 4.197,25.454 C4.456,25.713 4.729,25.948 5.003,26.182 C10.307,26.493 15.715,24.643 19.768,20.59 C23.724,16.634 25.58,11.388 25.378,6.207 L25.378,6.207 Z" id="Stroke-301" stroke="#FFFFFF" stroke-width="2" stroke-linecap="round" stroke-linejoin="round"></path>
                <path d="M25.378,6.207 C25.58,11.388 23.724,16.634 19.768,20.59 C15.715,24.643 10.307,26.493 5.003,26.182 C10.632,31.025 19.124,30.791 24.46,25.454 C29.729,20.185 30.033,11.835 25.378,6.207 L25.378,6.207 Z" id="Stroke-302" stroke="#FFFFFF" stroke-width="2" stroke-linecap="round" stroke-linejoin="round"></path>
            </g>
        </g>
    </g>
</svg>