<?xml version="1.0" encoding="UTF-8"?>
<svg width="60px" height="59px" viewBox="0 0 60 59" version="1.1" xmlns="http://www.w3.org/2000/svg" xmlns:xlink="http://www.w3.org/1999/xlink">
    <!-- Generator: Sketch 42 (36781) - http://www.bohemiancoding.com/sketch -->
    <title>Group 2</title>
    <desc>Created with Sketch.</desc>
    <defs></defs>
    <g id="Symbols" stroke="none" stroke-width="1" fill="none" fill-rule="evenodd">
        <g id="Records" transform="translate(-2.000000, -2.000000)">
            <g id="Group-2" transform="translate(3.000000, 3.000000)">
                <path d="M51.455,57 L6.512,57 C6.207,57 5.945,56.781 5.892,56.48 L0.001,15.098 C-0.008,15.047 0.032,15 0.084,15 L57.884,15 C57.936,15 57.976,15.047 57.967,15.098 L52.076,56.48 C52.023,56.781 51.761,57 51.455,57 L51.455,57 Z M55.384,15 L55.928,10.56 C55.958,10.26 55.723,10 55.421,10 L2.547,10 C2.245,10 2.01,10.26 2.04,10.56 L2.584,15 L55.384,15 L55.384,15 Z M51.984,10 L51.984,5.49 C51.984,5.22 51.764,5 51.494,5 L6.474,5 C6.203,5 5.984,5.22 5.984,5.49 L5.984,10 L51.984,10 L51.984,10 Z M47.984,5 L47.984,0.49 C47.984,0.219 47.764,0 47.494,0 L10.474,0 C10.204,0 9.984,0.219 9.984,0.49 L9.984,5 L47.984,5 L47.984,5 Z M47.984,36 C47.984,44.837 39.253,52 28.484,52 C17.714,52 8.984,44.837 8.984,36 C8.984,27.163 17.714,20 28.484,20 C39.253,20 47.984,27.163 47.984,36 L47.984,36 Z M18.124,27.249 C20.994,25.174 24.588,23.939 28.484,23.939 M20.558,30.224 C22.753,28.636 25.503,27.69 28.484,27.69 M22.969,33.215 C24.494,32.103 26.408,31.441 28.484,31.441 M38.935,44.939 C36.064,47.014 32.47,48.249 28.574,48.249 M36.5,41.964 C34.305,43.552 31.555,44.498 28.574,44.498 M34.089,38.973 C32.565,40.085 30.651,40.747 28.574,40.747" id="Stroke-601" stroke="#FFFFFF" stroke-width="2" stroke-linecap="round" stroke-linejoin="round"></path>
                <path d="M31.207,35.985 C31.207,36.917 30.165,37.673 28.88,37.673 C27.595,37.673 26.553,36.917 26.553,35.985 C26.553,35.052 27.595,34.296 28.88,34.296 C30.165,34.296 31.207,35.052 31.207,35.985" id="Fill-602" fill="#FFFFFF"></path>
            </g>
        </g>
    </g>
</svg>